<?xml version="1.0" encoding="utf-8"?>
<!-- Generator: Adobe Illustrator 15.0.0, SVG Export Plug-In . SVG Version: 6.00 Build 0)  -->
<!DOCTYPE svg PUBLIC "-//W3C//DTD SVG 1.1//EN" "http://www.w3.org/Graphics/SVG/1.1/DTD/svg11.dtd">
<svg version="1.1" id="Logo_FINAL" xmlns="http://www.w3.org/2000/svg" xmlns:xlink="http://www.w3.org/1999/xlink" x="0px" y="0px"
	 width="912.7px" height="290.1px" viewBox="0 0 912.7 290.1" enable-background="new 0 0 912.7 290.1" xml:space="preserve">
<g>
	<g>
		<g>
			<path fill="#131212" d="M752.299,121.7V145.9h-77V139.2c0-10.5,1.701-17.5,14-17.5H752.299z M684.6,106.8
				c-20.199,0-29.5,10.8-29.5,28v48.5h20.199V161h77v22.3H772.6v-76.5H684.6z M797.299,106.8v14.9h47.5v61.5H865v-61.5h47.6v-14.9
				H797.299z M525.401,153.8c0,10.7,2.199,14.5,14,14.5h84.398v14.9h-89.1c-20.199,0-29.6-9.101-29.6-26.301V106.7h118.801V121.6
				h-98.4v15h94.4V151.2h-94.4v2.6H525.401z M380.8,133.4c-6.2-0.5-7.3-2.699-7.3-6.399c0-3.5,1.9-5.4,6.6-5.4h93.2v-14.7h-95.5
				c-13.6,0-22.899,5.2-22.899,20.5c0,15.301,7,20.5,22.5,21.7l75.6,6.3c5.799,0.5,7.401,2.5,7.401,6.601
				c0,4-1.801,6.399-6.901,6.399h-94.8v14.9h96.5c16.599,0,23.9-6.6,23.9-22.3c0-14.3-6.6-20-22.8-21.3L380.8,133.4z"/>
		</g>
	</g>
</g>
<g>
	<g>
		<g>
			<path fill="#131212" d="M325.5,167.8L0.2,110c0,0,0.9-36.4,1.6-55.7c0.7-19.3,4.7-31,12.7-38.1C25.5,6.5,38.3,4.1,68.9,2.5
				c70.9-3.9,143-3.3,233.4,3c9.4,0.7,13,2.399,14.8,3.7c4,2.699,4.5,5.8,5.601,21.899C323.6,44,325.6,87.4,325.6,87.4
				S218.9,83.5,166.4,83.5c-14.8,0-26.7,0.1-36.4,0.3c-6.5,0.1-9.5,0.7-12,1.9L325.6,121v46.8H325.5z"/>
		</g>
		<g>
			<path fill="#131212" d="M0,122.3l325.3,57.8c0,0-0.899,36.4-1.6,55.7s-4.7,31-12.7,38.1c-11,9.7-23.8,12.101-54.4,13.7
				c-70.9,3.9-143,3.3-233.4-3c-9.4-0.7-13-2.399-14.8-3.7c-4-2.699-4.5-5.8-5.6-21.899C2.1,246.2,0,202.8,0,202.8
				s106.7,3.9,159.2,3.9c14.8,0,26.7-0.101,36.4-0.301c6.5-0.1,9.5-0.699,12-1.899L0,169.1V122.3z"/>
		</g>
	</g>
	<g id="did_2_">
		<g>
			<path fill="#131212" d="M325.5,167.8L0.2,110c0,0,0.9-36.4,1.6-55.7c0.7-19.3,4.7-31,12.7-38.1C25.5,6.5,38.3,4.1,68.9,2.5
				c70.9-3.9,143-3.3,233.4,3c9.4,0.7,13,2.399,14.8,3.7c4,2.699,4.5,5.8,5.601,21.899C323.6,44,325.6,87.4,325.6,87.4
				S218.9,83.5,166.4,83.5c-14.8,0-26.7,0.1-36.4,0.3c-6.5,0.1-9.5,0.7-12,1.9L325.6,121v46.8H325.5z M0,122.3l325.3,57.8
				c0,0-0.899,36.4-1.6,55.7s-4.7,31-12.7,38.1c-11,9.7-23.8,12.101-54.4,13.7c-70.9,3.9-143,3.3-233.4-3
				c-9.4-0.7-13-2.399-14.8-3.7c-4-2.699-4.5-5.8-5.6-21.899C2.1,246.2,0,202.8,0,202.8s106.7,3.9,159.2,3.9
				c14.8,0,26.7-0.101,36.4-0.301c6.5-0.1,9.5-0.699,12-1.899L0,169.1V122.3z M3.4,126.4V166.2l211.5,36c0,0-2.9,3.899-5.9,5.3
				c-3,1.399-6.8,2.1-13.4,2.3c-9.8,0.2-21.7,0.3-36.5,0.3c-46.4,0-136.2-3.1-155.6-3.8c0.5,10.8,2.1,42,2.8,52.5
				c1.1,16,1.6,17.5,4.1,19.3c0.9,0.601,3.6,2.4,13.1,3.101c52.2,3.699,99.2,5.399,143.7,5.399c30,0,59.2-0.8,89.2-2.399
				c29.7-1.601,42.1-3.801,52.3-12.9c7.3-6.4,10.899-17.8,11.5-35.6c0.5-15.801,1.3-43.7,1.5-52.7L3.4,126.4z M322,163.7V123.9
				l-211.5-36c0,0,2.9-3.899,5.9-5.3c2.9-1.399,6.8-2.1,13.4-2.3c9.7-0.2,21.7-0.3,36.4-0.3c46.4,0,136.2,3.1,155.6,3.8
				c-0.5-10.8-2.1-42-2.8-52.5c-1.1-16-1.6-17.5-4.1-19.2C314,11.5,311.3,9.7,301.8,9c-52.2-3.7-99.2-5.4-143.7-5.4
				c-30,0-59.2,0.8-89.2,2.4c-29.6,1.5-42,3.7-52.2,12.7C9.4,25.2,5.8,36.5,5.2,54.4C4.6,70.2,3.9,98,3.7,107.1L322,163.7z"/>
			<path fill="#131212" d="M171.2,223.8c-1.9,0-11.4,0-13.4,0c-43.2,0-89.5-0.3-146-3.4l-8.2-14l2.2,0.101l9.4,10.8
				c48.8,2.7,93.6,3.3,142.7,3.3c2,0,11.3,0,13.4,0c6.9,0,15,0,22.2-0.3c24.8-0.8,32.3-3.4,49.3-20.6l6.1-0.601l-2.5,2.601
				c-18.3,18.899-25.8,20.8-52.8,21.699C186.3,223.8,178.2,223.8,171.2,223.8L171.2,223.8z"/>
			<polygon fill="#131212" points="321.8,183 3.4,126.4 3.4,128.4 9,131.3 9,157.4 3.4,163.7 3.4,166.3 12.1,159.1 12.1,130 
				317.2,184.2 			"/>
			<path fill="#131212" d="M313.8,183.6c-0.2,5.3-0.399,12-0.6,18.101c-0.2,5.199-0.3,9.699-0.5,13.899
				c-0.2,5.7-0.5,11.4-0.8,19.101C311.1,254.5,306.6,260.8,298,266c-8.2,5-17.8,5.7-47,7.1c-29.6,1.5-61.2,2.3-94,2.5
				c-2.5,0-5,0-7.5,0c-38.4,0-73.5-2.1-117.6-5.6c-7.5-0.601-12.3-1.2-14.4-2.601c-2.3-1.5-2.9-1.899-3.6-11.399
				c-0.1-1.4-0.2-2.7-0.3-4c-0.2-3.601-0.5-6.8-0.7-11.601c-0.2-4.899-0.5-9.699-1.2-20.3L8.8,215.2c0.6,11.3,1,20.899,1.2,25.899
				c0.2,4.5,0.2,7.5,0.5,11.101v0.399c0.1,1.101,0.1,2.3,0.2,3.5c0.6,9.5,1.3,11.4,5,13.8c2.7,1.801,7.7,2.5,15.9,3.101
				c44.2,3.399,79.3,5.6,117.8,5.6c2.5,0,5,0,7.5,0c32.8-0.2,64.5-1.1,94.2-2.6c29.8-1.5,39.6-2.2,48.5-7.601
				c9.6-5.8,14.6-12.699,15.4-33.899c0.3-7.601,0.5-13.3,0.8-18.8V215.4c0.4-8.899,0.8-18.399,1.3-31.5L313.8,183.6z"/>
			<g>
				<path fill="#131212" d="M314,74.2L314,74.2h-1.3c-46.5-2.301-93.9-2-147.4-2c-3.4,0-7.6,0-12.2,0.1c-14.1,0.2-25,0.2-31.5,1.4
					c-14.1,2.5-13.4,9.8-8.1,10.8c0.9-0.8,1.9-1.5,2.9-2c2.9-1.4,6.8-2.101,13.4-2.3c9.7-0.2,21.7-0.301,36.4-0.301
					c45.3,0,131.7,2.9,154,3.7C318.6,81.1,314.8,75.4,314,74.2z"/>
			</g>
			<path fill="#131212" d="M307.7,26.3l1.8-2.6L309,23.4c-2.3-1.6-7.2-2.6-15.3-3.199c-41.6-2.9-87.7-4.7-120.4-4.7
				c-2.2,0-4.4,0-6.6,0c-6.9,0-13.4,0.1-19.6,0.1c-31.4,0.2-56,0.5-74.1,1.5c-1.5,0.101-3,0.2-4.5,0.2c-25.8,1.4-38.7,2.1-48.9,11.1
				C12.8,34.5,10,42.7,9.3,58.8L9,66.5c-0.5,12.2-0.7,19.8-1.2,36.1c-0.9,0.4-3.3,1.5-4.1,1.9l-0.1,2.6l7.4-3l0.1-3.7
				c0.4-14.199,0.7-22.8,1.2-33.8l0.3-7.7c0.6-15.1,3.1-22.699,9.2-28.1c9.3-8.3,21.9-8.9,46.9-10.3c1.5-0.101,3-0.2,4.5-0.2
				c18-1,42.6-1.3,73.9-1.5c6.2,0,12.7-0.1,19.6-0.1c2.1,0,4.3,0,6.5,0c32.6,0,78.6,1.8,120.1,4.699c7.3,0.5,12,1.4,13.8,2.601
				L307.7,26.3L307.7,26.3z"/>
			<path fill="#131212" d="M9.1,66.4L9.4,58.7C10.1,42.6,12.8,34.4,19.7,28.3c1.5-1.3,3.1-2.5,4.7-3.5c-1.5-3-1.9-5.8-0.9-7.9
				C24.4,15.2,28,12.2,35.7,9.4c-8.2,1.9-13.9,4.7-19,9.301C9.4,25.2,5.8,36.5,5.2,54.4C4.7,68.9,4,93.5,3.8,104.5
				c0.6-0.3,3.1-1.4,4.1-1.9C8.4,86.3,8.6,78.6,9.1,66.4z"/>
			<path fill="#131212" d="M310.9,24.9c2.1-3.199,5.199-3.3,8,3.9c-1-13.7-1.601-15.2-3.9-16.8c-0.9-0.601-3.6-2.4-13.1-3.101
				C249.7,5.2,202.7,3.5,158.2,3.5C128.2,3.5,99,4.3,69,5.9C54.2,6.7,43.8,7.6,35.7,9.4C28,12.2,24.4,15.2,23.5,16.9
				c-1.1,2.101-0.6,5,0.9,7.9c9.5-5.7,22.2-6.4,44.1-7.6C70,17.1,71.5,17,73,17c18.1-1,42.7-1.3,74.1-1.5
				c6.2,0,12.7-0.101,19.6-0.101c2.1,0,4.3,0,6.6,0c32.7,0,78.8,1.801,120.4,4.7c8.1,0.601,13,1.601,15.3,3.2l0.5,0.3
				C310,24,310.5,24.5,310.9,24.9z"/>
			<path fill="#131212" d="M321.8,81.7L315.5,71.1c-0.1-8.6-0.9-26.399-1.5-33.8c-0.7-7.1-1-10.1-3-12.3c-0.4-0.5-0.9-0.9-1.5-1.3
				l-1.8,2.6c2,1.5,2.3,2.8,3.1,11.3c0.7,7.7,1.9,27.101,2,34.8l7.5,11.4l1.601,0.1L321.8,81.7z"/>
			<path fill="#131212" d="M318.9,28.8c-2.801-7.1-6-7.1-8-3.9c2.1,2.301,2.3,5.301,3,12.301C314.6,44.6,315.3,62.4,315.4,71
				l6.3,10.6c-0.601-12.2-2-40.5-2.7-50.5"/>
			<path fill="#131212" d="M312.7,72.3c-43.4-2.1-90.2-3.3-147.4-3.3c-11.4,0-33.7,0.399-43.9,0.6C104.1,69.9,101.1,80.7,101,84.7
				l213.3,49.5V160.6l7.7,3.101L3.7,107.1l7.4-3l0.1-3.7c0,0,0.7-22.8,1.2-33.8l0.3-7.7c0.6-15.1,3.1-22.699,9.2-28.1
				c9.3-8.3,21.9-8.9,46.9-10.3c1.5-0.101,3-0.2,4.5-0.2c18-1,42.6-1.3,73.9-1.5c6.2,0,12.7-0.1,19.6-0.1c2.1,0,4.3,0,6.5,0
				c32.6,0,78.6,1.8,120.1,4.699c7.3,0.5,12,1.4,13.8,2.601l0.5,0.3c0,0,0,0,0.1,0l0.101,0.1l0,0c0.1,0,0.1,0.101,0.199,0.101l0,0
				c0.101,0,0.101,0.1,0.2,0.1l0,0c0.101,0,0.101,0.101,0.101,0.101l0,0c0,0.1,0.1,0.1,0.1,0.1l0,0c1.2,1.3,1.5,3.1,2.1,9.1
				c0,0.5,0.101,1,0.101,1.5C311.5,45.2,312.7,64.6,312.7,72.3"/>
			<path fill="#131212" d="M312.7,72.3c-43.4-2.1-90.2-3.3-147.4-3.3c-11.4,0-33.7,0.399-43.9,0.6C104.1,69.9,101.1,80.7,101,84.7
				l213.3,49.5V160.6l7.7,3.101L3.7,107.1l7.4-3l0.1-3.7c0,0,0.7-22.8,1.2-33.8l0.3-7.7c0.6-15.1,3.1-22.699,9.2-28.1
				c9.3-8.3,21.9-8.9,46.9-10.3c1.5-0.101,3-0.2,4.5-0.2c18-1,42.6-1.3,73.9-1.5c6.2,0,12.7-0.1,19.6-0.1c2.1,0,4.3,0,6.5,0
				c32.6,0,78.6,1.8,120.1,4.699c7.3,0.5,12,1.4,13.8,2.601l0.5,0.3c0,0,0,0,0.1,0l0.101,0.1l0,0c0.1,0,0.1,0.101,0.199,0.101l0,0
				c0.101,0,0.101,0.1,0.2,0.1l0,0c0.101,0,0.101,0.101,0.101,0.101l0,0c0,0.1,0.1,0.1,0.1,0.1l0,0c1.2,1.3,1.5,3.1,2.1,9.1
				c0,0.5,0.101,1,0.101,1.5C311.5,45.2,312.7,64.6,312.7,72.3"/>
			<polygon fill="#131212" points="3.4,128.4 9,131.3 9,157.4 3.4,163.7 			"/>
			<path fill="#131212" d="M289.6,280.7c2.3-1.5,3.4-2.9,3.8-3.7c0.8-1.601,0.1-3.101-1.3-4.8c-7.9,2.5-19,3.1-41,4.199
				c-29.6,1.5-61.3,2.301-94.2,2.601c-2.5,0-5,0-7.5,0c-38.5,0-73.6-2.101-117.8-5.601c-8.2-0.6-13.2-1.3-15.9-3.1
				c-0.9-0.6-1.6-1.2-2.2-1.8c-0.3,0.3-0.7,0.7-1.2,1.1c-2.8,2.5-4.3,2-5.4-1.899c0.7,8,1.5,9.199,3.4,10.5
				c0.9,0.6,3.6,2.399,13.1,3.1c52.2,3.7,99.2,5.4,143.7,5.4c30,0,59.2-0.801,89.2-2.4C271.2,283.4,281.6,282.5,289.6,280.7
				L289.6,280.7z"/>
			<path fill="#131212" d="M10.6,252.8v-0.4c-0.2-3.6-0.3-6.6-0.5-11.1c-0.2-5-0.6-14.6-1.2-25.9l-5.3-9c0.5,10.801,2.1,42,2.8,52.5
				l0.7,8.7c1.1,4,2.6,4.5,5.4,1.9c0.5-0.5,0.9-0.8,1.2-1.101c-1.8-2-2.3-4.899-2.8-12C10.8,255.1,10.7,254,10.6,252.8z"/>
			<path fill="#131212" d="M317.2,184.2c-0.5,13.1-0.9,22.6-1.3,31.5v0.3c-0.2,5.5-0.5,11.2-0.801,18.8
				c-0.899,21.3-5.899,28.1-15.399,33.9c-2.3,1.399-4.7,2.5-7.4,3.399c1.3,1.7,2.1,3.2,1.3,4.8c-0.4,0.801-1.6,2.301-3.8,3.7
				c8.2-1.899,14-4.7,19.101-9.3c7.3-6.4,10.899-17.8,11.5-35.6c0.5-15.801,1.3-43.7,1.5-52.7L317.2,184.2z"/>
			<path fill="#131212" d="M312.7,215.6c-0.2,5.7-0.5,11.4-0.8,19.101C311.1,254.5,306.6,260.8,298,266c-8.2,5-17.8,5.7-47,7.1
				c-29.6,1.5-61.2,2.3-94,2.5c-2.5,0-5,0-7.5,0c-38.4,0-73.5-2.1-117.6-5.6c-7.5-0.601-12.3-1.2-14.4-2.601
				c-2.3-1.5-2.9-1.899-3.6-11.399c-0.1-1.4-0.2-2.7-0.3-4c-0.2-3.601-0.5-6.8-0.7-11.601c-0.2-4.899-0.5-9.699-1.2-20.3
				c56.6,3.101,102.9,3.4,146,3.4c2,0,11.5,0,13.4,0c7,0,15.1,0,22.3-0.3c27-0.9,34.5-2.801,52.8-21.7l2.5-2.601L12.1,159.1V130
				l301.8,53.6l0,0l0,0c-0.2,5.3-0.4,12-0.601,18.101C313,206.9,312.9,211.4,312.7,215.6z"/>
			<path fill="#131212" d="M214.8,215.5c-0.1,1.1-1.6,2.7-7.1,3.899c14.3-1.699,21.7-6.3,34.9-19.6l-27.8,2.5c0,0-2.9,3.9-5.9,5.3
				c-2,0.9-4.3,1.601-7.6,1.9c5.9,1.3,7.8,2,10.2,3C213.6,213.2,214.9,214.6,214.8,215.5z"/>
			<path fill="#131212" d="M207.8,219.4c5.5-1.199,7-2.8,7.1-3.899c0.1-0.9-1.3-2.3-3.2-3c-2.3-0.9-4.3-1.601-10.2-3
				c0,0-3.6,0.3-5.8,0.3c-9.8,0.2-21.7,0.3-36.5,0.3c-44.9,0-130.3-2.899-153.4-3.7l0,0l9.4,10.801c48.8,2.699,93.6,3.3,142.7,3.3
				c2,0,11.3,0,13.4,0c6.9,0,15,0,22.2-0.3C199,220.2,203.7,219.9,207.8,219.4z"/>
			<g>
				<path fill="#131212" d="M313.7,130.6l5.2-7.3L128.6,90.9c19.7,6.4,72.5,18.7,112.9,27.801C239.6,118.3,307.2,129.5,313.7,130.6z
					"/>
			</g>
			<g>
				<path fill="#131212" d="M193.5,193.1c-5.2-1-9.2-1.899-13.5-2.5c-1.9-0.3-103.1-17.5-170.6-29.3l-6,4.9l211.5,36
					C211.9,198.8,201.4,194.7,193.5,193.1z"/>
			</g>
			<path fill="#131212" d="M193.5,193.1c-5.2-1-9.2-1.899-13.5-2.5c-1.9-0.3-103.1-17.5-170.6-29.3l2.7-2.2L248.9,199.2l-33.9,3.1
				C213,199.7,203.2,195,193.5,193.1z"/>
			<path fill="#131212" d="M312.7,72.3c-43.4-2.1-90.2-3.3-147.4-3.3c-11.4,0-33.7,0.399-43.9,0.6C99.9,70,87.5,80.3,77.6,91.3
				l-1.8,1.8l35.3-6.1c0,0,0.6-0.9,2.4-2.5c-5.3-1-6-8.3,8.1-10.8c6.4-1.2,17.4-1.2,31.5-1.4c4.6-0.1,8.9-0.1,12.2-0.1
				c53.5,0,100.9-0.301,147.4,2l1.3,0.1L312.7,72.3z"/>
			<path fill="#131212" d="M81.5,92.2c14.5,2.5,97.2,16.1,160,26.5C201.1,109.6,148.3,97.4,128.6,90.9L111.2,87L81.5,92.2z"/>
			<path fill="#131212" d="M312.7,215.6c-0.2,5.7-0.5,11.4-0.8,19.101C311.1,254.5,306.6,260.8,298,266c-8.2,5-17.8,5.7-47,7.1
				c-29.6,1.5-61.2,2.3-94,2.5c-2.5,0-5,0-7.5,0c-38.4,0-73.5-2.1-117.6-5.6c-7.5-0.601-12.3-1.2-14.4-2.601
				c-2.3-1.5-2.9-1.899-3.6-11.399c-0.1-1.4-0.2-2.7-0.3-4c-0.2-3.601-0.5-6.8-0.7-11.601c-0.2-4.899-0.5-9.699-1.2-20.3
				c56.6,3.101,102.9,3.4,146,3.4c2,0,11.5,0,13.4,0c7,0,15.1,0,22.3-0.3c27-0.9,34.5-2.801,52.8-21.7l2.5-2.601L12.1,159.1V130
				l301.8,53.6l0,0l0,0c-0.2,5.3-0.4,12-0.601,18.101C313,206.9,312.9,211.4,312.7,215.6z"/>
			<path fill="#131212" d="M75.9,93.1l5.6-1c22.9,3.9,215.3,35.5,232.2,38.4l5.2-7.3l3.1,0.5l-7.7,10.3L75.9,93.1z"/>
			<path opacity="0.1" fill="#131212" enable-background="new    " d="M298,266c8.6-5.2,13.1-11.5,13.9-31.3
				c0.3-7.7,0.6-13.5,0.8-19.101c0.2-4.2,0.3-8.7,0.5-13.899c0.2-6.101,0.399-12.801,0.6-18.101l0,0l-85.7-15.2
				c-14.9,5.101-28.2,12.101-39.3,20.7l60,10.2l-2.5,2.6c-18.3,18.9-25.8,20.801-52.8,21.7c-7.2,0.2-15.3,0.3-22.3,0.3
				c-1.4,0-7.1,0-10.7,0c-3.8,8.7-5.9,17.9-5.9,27.4c0,8.5,1.6,16.7,4.7,24.5c32-0.2,62.8-1.1,91.7-2.5
				C280.2,271.7,289.8,271,298,266z"/>
		</g>
		<polygon fill="#131212" points="314.4,160.6 317.4,159.7 317.4,130 314.4,134.2 		"/>
		<polygon fill="#131212" points="314.4,160.6 317.4,159.7 322,162 322,163.7 		"/>
		<polygon fill="#131212" points="322,123.8 317.4,130 317.4,159.7 322,162 		"/>
	</g>
</g>
</svg>
